<mxfile host="app.diagrams.net" agent="Mozilla/5.0 (Windows NT 10.0; Win64; x64) AppleWebKit/537.36 (KHTML, like Gecko) Chrome/134.0.0.0 Safari/537.36" version="26.1.3">
  <diagram name="第 1 页" id="kzucVVmffsI4Uv_cw9Wo">
    <mxGraphModel dx="16787" dy="8907" grid="1" gridSize="10" guides="1" tooltips="1" connect="1" arrows="1" fold="1" page="1" pageScale="1" pageWidth="827" pageHeight="1169" math="0" shadow="0">
      <root>
        <mxCell id="0" />
        <mxCell id="1" parent="0" />
        <mxCell id="D2kJtY1gfYMt60ZmmeSX-1" value="" style="endArrow=classic;html=1;rounded=0;strokeWidth=6;" edge="1" parent="1">
          <mxGeometry width="50" height="50" relative="1" as="geometry">
            <mxPoint x="450" y="710" as="sourcePoint" />
            <mxPoint x="450" y="380" as="targetPoint" />
          </mxGeometry>
        </mxCell>
        <mxCell id="D2kJtY1gfYMt60ZmmeSX-4" value="" style="endArrow=classic;html=1;rounded=0;strokeWidth=6;" edge="1" parent="1">
          <mxGeometry width="50" height="50" relative="1" as="geometry">
            <mxPoint x="450" y="710" as="sourcePoint" />
            <mxPoint x="1190" y="380" as="targetPoint" />
          </mxGeometry>
        </mxCell>
        <mxCell id="D2kJtY1gfYMt60ZmmeSX-5" value="&lt;font style=&quot;font-size: 32px;&quot;&gt;A&lt;/font&gt;" style="text;html=1;align=center;verticalAlign=middle;whiteSpace=wrap;rounded=0;" vertex="1" parent="1">
          <mxGeometry x="414" y="710" width="60" height="30" as="geometry" />
        </mxCell>
        <mxCell id="D2kJtY1gfYMt60ZmmeSX-8" value="&lt;font style=&quot;font-size: 32px;&quot;&gt;C&lt;/font&gt;" style="text;html=1;align=center;verticalAlign=middle;whiteSpace=wrap;rounded=0;" vertex="1" parent="1">
          <mxGeometry x="1181" y="340" width="60" height="30" as="geometry" />
        </mxCell>
        <mxCell id="D2kJtY1gfYMt60ZmmeSX-9" value="" style="endArrow=classic;html=1;rounded=0;strokeWidth=7;" edge="1" parent="1">
          <mxGeometry width="50" height="50" relative="1" as="geometry">
            <mxPoint x="-370" y="810" as="sourcePoint" />
            <mxPoint x="-370" y="420" as="targetPoint" />
          </mxGeometry>
        </mxCell>
        <mxCell id="D2kJtY1gfYMt60ZmmeSX-11" value="&lt;span style=&quot;font-size: 32px;&quot;&gt;北&lt;/span&gt;" style="text;html=1;align=center;verticalAlign=middle;whiteSpace=wrap;rounded=0;strokeWidth=10;" vertex="1" parent="1">
          <mxGeometry x="-400" y="370" width="60" height="30" as="geometry" />
        </mxCell>
        <mxCell id="D2kJtY1gfYMt60ZmmeSX-12" value="&lt;span style=&quot;font-size: 32px;&quot;&gt;100米&lt;/span&gt;" style="text;html=1;align=center;verticalAlign=middle;whiteSpace=wrap;rounded=0;strokeWidth=10;" vertex="1" parent="1">
          <mxGeometry x="-500" y="610" width="130" height="30" as="geometry" />
        </mxCell>
        <mxCell id="D2kJtY1gfYMt60ZmmeSX-16" value="" style="endArrow=classic;html=1;rounded=0;shadow=0;jumpStyle=none;targetPerimeterSpacing=0;strokeWidth=6;" edge="1" parent="1">
          <mxGeometry width="50" height="50" relative="1" as="geometry">
            <mxPoint x="451" y="710" as="sourcePoint" />
            <mxPoint x="1181" y="710" as="targetPoint" />
            <Array as="points">
              <mxPoint x="1021" y="710" />
            </Array>
          </mxGeometry>
        </mxCell>
        <mxCell id="D2kJtY1gfYMt60ZmmeSX-18" value="&lt;span style=&quot;font-size: 32px;&quot;&gt;向量a&lt;/span&gt;" style="text;html=1;align=center;verticalAlign=middle;whiteSpace=wrap;rounded=0;" vertex="1" parent="1">
          <mxGeometry x="480" y="510" width="110" height="30" as="geometry" />
        </mxCell>
        <mxCell id="D2kJtY1gfYMt60ZmmeSX-19" value="&lt;span style=&quot;font-size: 32px;&quot;&gt;向量b&lt;/span&gt;" style="text;html=1;align=center;verticalAlign=middle;whiteSpace=wrap;rounded=0;" vertex="1" parent="1">
          <mxGeometry x="717" y="720" width="110" height="30" as="geometry" />
        </mxCell>
        <mxCell id="D2kJtY1gfYMt60ZmmeSX-20" value="&lt;span style=&quot;font-size: 32px;&quot;&gt;向量c&lt;/span&gt;" style="text;html=1;align=center;verticalAlign=middle;whiteSpace=wrap;rounded=0;" vertex="1" parent="1">
          <mxGeometry x="800" y="555" width="110" height="30" as="geometry" />
        </mxCell>
        <mxCell id="D2kJtY1gfYMt60ZmmeSX-21" value="" style="endArrow=classic;html=1;rounded=0;strokeWidth=6;dashed=1;" edge="1" parent="1">
          <mxGeometry width="50" height="50" relative="1" as="geometry">
            <mxPoint x="1190" y="710" as="sourcePoint" />
            <mxPoint x="1190" y="380" as="targetPoint" />
          </mxGeometry>
        </mxCell>
        <mxCell id="D2kJtY1gfYMt60ZmmeSX-22" value="" style="endArrow=classic;html=1;rounded=0;shadow=0;jumpStyle=none;targetPerimeterSpacing=0;strokeWidth=6;dashed=1;" edge="1" parent="1">
          <mxGeometry width="50" height="50" relative="1" as="geometry">
            <mxPoint x="461" y="380" as="sourcePoint" />
            <mxPoint x="1191" y="380" as="targetPoint" />
            <Array as="points">
              <mxPoint x="1031" y="380" />
            </Array>
          </mxGeometry>
        </mxCell>
        <mxCell id="D2kJtY1gfYMt60ZmmeSX-23" value="" style="endArrow=classic;html=1;rounded=0;strokeWidth=5;" edge="1" parent="1">
          <mxGeometry width="50" height="50" relative="1" as="geometry">
            <mxPoint x="2480" y="880" as="sourcePoint" />
            <mxPoint x="2480" y="400" as="targetPoint" />
          </mxGeometry>
        </mxCell>
        <mxCell id="D2kJtY1gfYMt60ZmmeSX-24" value="" style="endArrow=classic;html=1;rounded=0;strokeWidth=5;" edge="1" parent="1">
          <mxGeometry width="50" height="50" relative="1" as="geometry">
            <mxPoint x="2240" y="640" as="sourcePoint" />
            <mxPoint x="2720" y="640" as="targetPoint" />
          </mxGeometry>
        </mxCell>
        <mxCell id="D2kJtY1gfYMt60ZmmeSX-25" value="&lt;font style=&quot;font-size: 32px;&quot;&gt;y&lt;/font&gt;" style="text;html=1;align=center;verticalAlign=middle;whiteSpace=wrap;rounded=0;" vertex="1" parent="1">
          <mxGeometry x="2450" y="360" width="60" height="30" as="geometry" />
        </mxCell>
        <mxCell id="D2kJtY1gfYMt60ZmmeSX-26" value="&lt;font style=&quot;font-size: 32px;&quot;&gt;x&lt;/font&gt;" style="text;html=1;align=center;verticalAlign=middle;whiteSpace=wrap;rounded=0;" vertex="1" parent="1">
          <mxGeometry x="2710" y="620" width="60" height="30" as="geometry" />
        </mxCell>
        <mxCell id="D2kJtY1gfYMt60ZmmeSX-27" value="(0,0)" style="text;html=1;align=center;verticalAlign=middle;whiteSpace=wrap;rounded=0;" vertex="1" parent="1">
          <mxGeometry x="2430" y="640" width="60" height="30" as="geometry" />
        </mxCell>
        <mxCell id="D2kJtY1gfYMt60ZmmeSX-28" value="" style="endArrow=classic;html=1;rounded=0;" edge="1" parent="1">
          <mxGeometry width="50" height="50" relative="1" as="geometry">
            <mxPoint x="2481" y="640" as="sourcePoint" />
            <mxPoint x="2600" y="590" as="targetPoint" />
          </mxGeometry>
        </mxCell>
        <mxCell id="D2kJtY1gfYMt60ZmmeSX-29" value="(x&lt;sub&gt;1&lt;/sub&gt;,y&lt;sub&gt;1&lt;/sub&gt;)" style="text;html=1;align=center;verticalAlign=middle;whiteSpace=wrap;rounded=0;" vertex="1" parent="1">
          <mxGeometry x="2600" y="570" width="60" height="30" as="geometry" />
        </mxCell>
        <mxCell id="D2kJtY1gfYMt60ZmmeSX-30" value="" style="endArrow=classic;html=1;rounded=0;exitX=0.869;exitY=-0.043;exitDx=0;exitDy=0;exitPerimeter=0;" edge="1" parent="1" source="D2kJtY1gfYMt60ZmmeSX-27">
          <mxGeometry width="50" height="50" relative="1" as="geometry">
            <mxPoint x="2491" y="650" as="sourcePoint" />
            <mxPoint x="2550" y="530" as="targetPoint" />
          </mxGeometry>
        </mxCell>
        <mxCell id="D2kJtY1gfYMt60ZmmeSX-31" value="(x&lt;sub&gt;2&lt;/sub&gt;,y&lt;sub&gt;2&lt;/sub&gt;)" style="text;html=1;align=center;verticalAlign=middle;whiteSpace=wrap;rounded=0;" vertex="1" parent="1">
          <mxGeometry x="2530" y="500" width="60" height="30" as="geometry" />
        </mxCell>
        <mxCell id="D2kJtY1gfYMt60ZmmeSX-32" value="" style="endArrow=classic;html=1;rounded=0;dashed=1;endSize=0;startSize=0;" edge="1" parent="1">
          <mxGeometry width="50" height="50" relative="1" as="geometry">
            <mxPoint x="2550" y="530" as="sourcePoint" />
            <mxPoint x="2669" y="480" as="targetPoint" />
          </mxGeometry>
        </mxCell>
        <mxCell id="D2kJtY1gfYMt60ZmmeSX-33" value="" style="endArrow=classic;html=1;rounded=0;exitX=0.869;exitY=-0.043;exitDx=0;exitDy=0;exitPerimeter=0;dashed=1;startSize=0;endSize=0;" edge="1" parent="1">
          <mxGeometry width="50" height="50" relative="1" as="geometry">
            <mxPoint x="2600" y="589" as="sourcePoint" />
            <mxPoint x="2668" y="480" as="targetPoint" />
          </mxGeometry>
        </mxCell>
        <mxCell id="D2kJtY1gfYMt60ZmmeSX-34" value="" style="endArrow=classic;html=1;rounded=0;exitX=0.826;exitY=0.043;exitDx=0;exitDy=0;exitPerimeter=0;" edge="1" parent="1" source="D2kJtY1gfYMt60ZmmeSX-27">
          <mxGeometry width="50" height="50" relative="1" as="geometry">
            <mxPoint x="2510" y="640" as="sourcePoint" />
            <mxPoint x="2670" y="480" as="targetPoint" />
          </mxGeometry>
        </mxCell>
        <mxCell id="D2kJtY1gfYMt60ZmmeSX-36" value="(x&lt;sub&gt;1&lt;/sub&gt;+x&lt;sub&gt;2&lt;/sub&gt;,y&lt;sub&gt;1&lt;/sub&gt;+y&lt;sub&gt;2&lt;/sub&gt;)" style="text;html=1;align=center;verticalAlign=middle;whiteSpace=wrap;rounded=0;" vertex="1" parent="1">
          <mxGeometry x="2660" y="450" width="60" height="30" as="geometry" />
        </mxCell>
        <mxCell id="D2kJtY1gfYMt60ZmmeSX-37" value="" style="endArrow=classic;html=1;rounded=0;strokeWidth=5;" edge="1" parent="1">
          <mxGeometry width="50" height="50" relative="1" as="geometry">
            <mxPoint x="4080" y="860" as="sourcePoint" />
            <mxPoint x="4080" y="380" as="targetPoint" />
          </mxGeometry>
        </mxCell>
        <mxCell id="D2kJtY1gfYMt60ZmmeSX-38" value="" style="endArrow=classic;html=1;rounded=0;strokeWidth=5;" edge="1" parent="1">
          <mxGeometry width="50" height="50" relative="1" as="geometry">
            <mxPoint x="3840" y="620" as="sourcePoint" />
            <mxPoint x="4320" y="620" as="targetPoint" />
          </mxGeometry>
        </mxCell>
        <mxCell id="D2kJtY1gfYMt60ZmmeSX-39" value="&lt;font style=&quot;font-size: 32px;&quot;&gt;y&lt;/font&gt;" style="text;html=1;align=center;verticalAlign=middle;whiteSpace=wrap;rounded=0;" vertex="1" parent="1">
          <mxGeometry x="4050" y="340" width="60" height="30" as="geometry" />
        </mxCell>
        <mxCell id="D2kJtY1gfYMt60ZmmeSX-40" value="&lt;font style=&quot;font-size: 32px;&quot;&gt;x&lt;/font&gt;" style="text;html=1;align=center;verticalAlign=middle;whiteSpace=wrap;rounded=0;" vertex="1" parent="1">
          <mxGeometry x="4310" y="600" width="60" height="30" as="geometry" />
        </mxCell>
        <mxCell id="D2kJtY1gfYMt60ZmmeSX-41" value="(0,0)" style="text;html=1;align=center;verticalAlign=middle;whiteSpace=wrap;rounded=0;" vertex="1" parent="1">
          <mxGeometry x="4030" y="620" width="60" height="30" as="geometry" />
        </mxCell>
        <mxCell id="D2kJtY1gfYMt60ZmmeSX-43" value="(x&lt;sub&gt;1&lt;/sub&gt;,y&lt;sub&gt;1&lt;/sub&gt;)" style="text;html=1;align=center;verticalAlign=middle;whiteSpace=wrap;rounded=0;" vertex="1" parent="1">
          <mxGeometry x="4230" y="630" width="60" height="30" as="geometry" />
        </mxCell>
        <mxCell id="D2kJtY1gfYMt60ZmmeSX-45" value="(x&lt;sub&gt;2&lt;/sub&gt;,y&lt;sub&gt;2&lt;/sub&gt;)" style="text;html=1;align=center;verticalAlign=middle;whiteSpace=wrap;rounded=0;" vertex="1" parent="1">
          <mxGeometry x="4010" y="450" width="60" height="30" as="geometry" />
        </mxCell>
        <mxCell id="D2kJtY1gfYMt60ZmmeSX-46" value="" style="endArrow=classic;html=1;rounded=0;dashed=1;endSize=0;startSize=0;" edge="1" parent="1">
          <mxGeometry width="50" height="50" relative="1" as="geometry">
            <mxPoint x="4080" y="460" as="sourcePoint" />
            <mxPoint x="4269" y="460" as="targetPoint" />
          </mxGeometry>
        </mxCell>
        <mxCell id="D2kJtY1gfYMt60ZmmeSX-47" value="" style="endArrow=classic;html=1;rounded=0;dashed=1;startSize=0;endSize=0;" edge="1" parent="1">
          <mxGeometry width="50" height="50" relative="1" as="geometry">
            <mxPoint x="4268" y="620" as="sourcePoint" />
            <mxPoint x="4268" y="460" as="targetPoint" />
          </mxGeometry>
        </mxCell>
        <mxCell id="D2kJtY1gfYMt60ZmmeSX-48" value="" style="endArrow=classic;html=1;rounded=0;exitX=0.826;exitY=0.043;exitDx=0;exitDy=0;exitPerimeter=0;" edge="1" parent="1" source="D2kJtY1gfYMt60ZmmeSX-41">
          <mxGeometry width="50" height="50" relative="1" as="geometry">
            <mxPoint x="4110" y="620" as="sourcePoint" />
            <mxPoint x="4270" y="460" as="targetPoint" />
          </mxGeometry>
        </mxCell>
        <mxCell id="D2kJtY1gfYMt60ZmmeSX-49" value="(x&lt;sub&gt;1&lt;/sub&gt;+x&lt;sub&gt;2&lt;/sub&gt;,y&lt;sub&gt;1&lt;/sub&gt;+y&lt;sub&gt;2&lt;/sub&gt;)" style="text;html=1;align=center;verticalAlign=middle;whiteSpace=wrap;rounded=0;" vertex="1" parent="1">
          <mxGeometry x="4260" y="430" width="60" height="30" as="geometry" />
        </mxCell>
        <mxCell id="D2kJtY1gfYMt60ZmmeSX-50" value="" style="endArrow=classic;html=1;rounded=0;exitX=0.93;exitY=0.02;exitDx=0;exitDy=0;exitPerimeter=0;" edge="1" parent="1" source="D2kJtY1gfYMt60ZmmeSX-41">
          <mxGeometry width="50" height="50" relative="1" as="geometry">
            <mxPoint x="4090" y="631" as="sourcePoint" />
            <mxPoint x="4270" y="620" as="targetPoint" />
          </mxGeometry>
        </mxCell>
        <mxCell id="D2kJtY1gfYMt60ZmmeSX-51" value="" style="endArrow=classic;html=1;rounded=0;exitX=0.82;exitY=-0.1;exitDx=0;exitDy=0;exitPerimeter=0;" edge="1" parent="1" source="D2kJtY1gfYMt60ZmmeSX-41">
          <mxGeometry width="50" height="50" relative="1" as="geometry">
            <mxPoint x="4090" y="631" as="sourcePoint" />
            <mxPoint x="4080" y="460" as="targetPoint" />
          </mxGeometry>
        </mxCell>
        <mxCell id="D2kJtY1gfYMt60ZmmeSX-65" value="" style="endArrow=classic;html=1;rounded=0;strokeWidth=5;" edge="1" parent="1">
          <mxGeometry width="50" height="50" relative="1" as="geometry">
            <mxPoint x="2990" y="2060" as="sourcePoint" />
            <mxPoint x="2990" y="1580" as="targetPoint" />
          </mxGeometry>
        </mxCell>
        <mxCell id="D2kJtY1gfYMt60ZmmeSX-66" value="" style="endArrow=classic;html=1;rounded=0;strokeWidth=5;" edge="1" parent="1">
          <mxGeometry width="50" height="50" relative="1" as="geometry">
            <mxPoint x="2750" y="1820" as="sourcePoint" />
            <mxPoint x="3230" y="1820" as="targetPoint" />
          </mxGeometry>
        </mxCell>
        <mxCell id="D2kJtY1gfYMt60ZmmeSX-67" value="&lt;font style=&quot;font-size: 32px;&quot;&gt;y&lt;/font&gt;" style="text;html=1;align=center;verticalAlign=middle;whiteSpace=wrap;rounded=0;" vertex="1" parent="1">
          <mxGeometry x="2960" y="1540" width="60" height="30" as="geometry" />
        </mxCell>
        <mxCell id="D2kJtY1gfYMt60ZmmeSX-68" value="&lt;font style=&quot;font-size: 32px;&quot;&gt;x&lt;/font&gt;" style="text;html=1;align=center;verticalAlign=middle;whiteSpace=wrap;rounded=0;" vertex="1" parent="1">
          <mxGeometry x="3220" y="1800" width="60" height="30" as="geometry" />
        </mxCell>
        <mxCell id="D2kJtY1gfYMt60ZmmeSX-69" value="(0,0)" style="text;html=1;align=center;verticalAlign=middle;whiteSpace=wrap;rounded=0;" vertex="1" parent="1">
          <mxGeometry x="2940" y="1820" width="60" height="30" as="geometry" />
        </mxCell>
        <mxCell id="D2kJtY1gfYMt60ZmmeSX-70" value="" style="endArrow=classic;html=1;rounded=0;" edge="1" parent="1">
          <mxGeometry width="50" height="50" relative="1" as="geometry">
            <mxPoint x="2991" y="1820" as="sourcePoint" />
            <mxPoint x="3110" y="1770" as="targetPoint" />
          </mxGeometry>
        </mxCell>
        <mxCell id="D2kJtY1gfYMt60ZmmeSX-71" value="(x&lt;sub&gt;1&lt;/sub&gt;,y&lt;sub&gt;1&lt;/sub&gt;)" style="text;html=1;align=center;verticalAlign=middle;whiteSpace=wrap;rounded=0;" vertex="1" parent="1">
          <mxGeometry x="3110" y="1750" width="60" height="30" as="geometry" />
        </mxCell>
        <mxCell id="D2kJtY1gfYMt60ZmmeSX-72" value="" style="endArrow=classic;html=1;rounded=0;exitX=0.869;exitY=-0.043;exitDx=0;exitDy=0;exitPerimeter=0;" edge="1" parent="1" source="D2kJtY1gfYMt60ZmmeSX-69">
          <mxGeometry width="50" height="50" relative="1" as="geometry">
            <mxPoint x="3001" y="1830" as="sourcePoint" />
            <mxPoint x="3060" y="1710" as="targetPoint" />
          </mxGeometry>
        </mxCell>
        <mxCell id="D2kJtY1gfYMt60ZmmeSX-73" value="(x&lt;sub&gt;2&lt;/sub&gt;,y&lt;sub&gt;2&lt;/sub&gt;)" style="text;html=1;align=center;verticalAlign=middle;whiteSpace=wrap;rounded=0;" vertex="1" parent="1">
          <mxGeometry x="3040" y="1680" width="60" height="30" as="geometry" />
        </mxCell>
        <mxCell id="D2kJtY1gfYMt60ZmmeSX-76" value="" style="endArrow=classic;html=1;rounded=0;entryX=0;entryY=0.667;entryDx=0;entryDy=0;entryPerimeter=0;" edge="1" parent="1" target="D2kJtY1gfYMt60ZmmeSX-71">
          <mxGeometry width="50" height="50" relative="1" as="geometry">
            <mxPoint x="3060" y="1710" as="sourcePoint" />
            <mxPoint x="3180" y="1660" as="targetPoint" />
          </mxGeometry>
        </mxCell>
        <mxCell id="D2kJtY1gfYMt60ZmmeSX-77" value="(x&lt;sub&gt;1&lt;/sub&gt;-x&lt;sub&gt;2&lt;/sub&gt;,y&lt;sub&gt;1&lt;/sub&gt;-y&lt;sub&gt;2&lt;/sub&gt;)" style="text;html=1;align=center;verticalAlign=middle;whiteSpace=wrap;rounded=0;" vertex="1" parent="1">
          <mxGeometry x="3070" y="1710" width="90" height="30" as="geometry" />
        </mxCell>
        <mxCell id="D2kJtY1gfYMt60ZmmeSX-78" value="" style="endArrow=classic;html=1;rounded=0;strokeWidth=6;" edge="1" parent="1">
          <mxGeometry width="50" height="50" relative="1" as="geometry">
            <mxPoint x="276" y="1800" as="sourcePoint" />
            <mxPoint x="276" y="1470" as="targetPoint" />
          </mxGeometry>
        </mxCell>
        <mxCell id="D2kJtY1gfYMt60ZmmeSX-79" value="" style="endArrow=classic;html=1;rounded=0;strokeWidth=6;" edge="1" parent="1">
          <mxGeometry width="50" height="50" relative="1" as="geometry">
            <mxPoint x="276" y="1800" as="sourcePoint" />
            <mxPoint x="1016" y="1470" as="targetPoint" />
          </mxGeometry>
        </mxCell>
        <mxCell id="D2kJtY1gfYMt60ZmmeSX-83" value="&lt;span style=&quot;font-size: 32px;&quot;&gt;向量b&lt;/span&gt;" style="text;html=1;align=center;verticalAlign=middle;whiteSpace=wrap;rounded=0;" vertex="1" parent="1">
          <mxGeometry x="306" y="1600" width="110" height="30" as="geometry" />
        </mxCell>
        <mxCell id="D2kJtY1gfYMt60ZmmeSX-84" value="&lt;span style=&quot;font-size: 32px;&quot;&gt;向量a-b&lt;/span&gt;" style="text;html=1;align=center;verticalAlign=middle;whiteSpace=wrap;rounded=0;" vertex="1" parent="1">
          <mxGeometry x="550" y="1410" width="200" height="30" as="geometry" />
        </mxCell>
        <mxCell id="D2kJtY1gfYMt60ZmmeSX-85" value="&lt;span style=&quot;font-size: 32px;&quot;&gt;向量a&lt;/span&gt;" style="text;html=1;align=center;verticalAlign=middle;whiteSpace=wrap;rounded=0;" vertex="1" parent="1">
          <mxGeometry x="626" y="1645" width="110" height="30" as="geometry" />
        </mxCell>
        <mxCell id="D2kJtY1gfYMt60ZmmeSX-87" value="" style="endArrow=classic;html=1;rounded=0;shadow=0;jumpStyle=none;targetPerimeterSpacing=0;strokeWidth=6;" edge="1" parent="1">
          <mxGeometry width="50" height="50" relative="1" as="geometry">
            <mxPoint x="280" y="1470" as="sourcePoint" />
            <mxPoint x="1017" y="1470" as="targetPoint" />
            <Array as="points">
              <mxPoint x="857" y="1470" />
            </Array>
          </mxGeometry>
        </mxCell>
      </root>
    </mxGraphModel>
  </diagram>
</mxfile>
